<?xml version="1.0" standalone="no"?>
<!DOCTYPE svg PUBLIC "-//W3C//DTD SVG 20010904//EN"
 "http://www.w3.org/TR/2001/REC-SVG-20010904/DTD/svg10.dtd">
<svg version="1.0" xmlns="http://www.w3.org/2000/svg"
 width="80.000000pt" height="80.000000pt" viewBox="0 0 80.000000 80.000000"
 preserveAspectRatio="xMidYMid meet">
<metadata>
Created by potrace 1.11, written by Peter Selinger 2001-2013
</metadata>
<g transform="translate(0.000000,80.000000) scale(0.100000,-0.100000)"
fill="#000000" stroke="none">
<path d="M251 776 c-8 -9 -29 -16 -47 -16 -33 0 -74 -28 -74 -50 0 -5 -7 -10
-15 -10 -20 0 -55 -36 -55 -56 0 -9 -11 -25 -25 -36 -23 -18 -25 -25 -22 -95
3 -61 7 -79 23 -92 13 -10 19 -27 18 -45 -1 -34 38 -81 61 -72 8 3 15 1 15 -5
0 -24 -54 -120 -91 -163 -25 -28 -39 -52 -35 -62 12 -32 77 27 127 115 14 25
33 48 43 49 16 4 16 2 1 -28 -9 -17 -32 -48 -51 -69 -30 -34 -32 -40 -19 -51
13 -11 21 -8 51 21 20 19 44 50 54 69 34 63 33 62 74 45 32 -13 41 -14 64 -2
15 7 52 12 84 11 63 -3 119 -33 211 -114 48 -43 77 -51 77 -22 0 24 -151 152
-180 152 -14 0 -12 18 2 22 18 6 103 -57 151 -113 43 -51 61 -59 70 -35 9 22
-46 88 -123 148 l-35 28 38 0 c43 0 96 20 115 42 6 8 16 36 21 61 7 38 4 59
-15 117 l-24 71 24 42 c14 23 26 44 27 47 1 3 -3 15 -10 28 l-12 23 -21 -27
c-21 -26 -22 -26 -29 -5 -5 11 -14 21 -21 21 -9 0 -9 -3 -1 -11 6 -6 9 -18 6
-26 -4 -11 -12 -7 -34 16 -28 31 -71 42 -84 21 -10 -16 -59 -3 -74 20 -9 14
-24 20 -52 20 -21 0 -41 5 -44 10 -4 6 -23 11 -43 10 -20 0 -53 3 -73 6 -25 4
-39 1 -48 -10z"/>
</g>
</svg>
